<?xml version="1.0" encoding="utf-8"?>
<!-- Generator: Adobe Illustrator 18.0.0, SVG Export Plug-In . SVG Version: 6.00 Build 0)  -->
<!DOCTYPE svg PUBLIC "-//W3C//DTD SVG 1.1//EN" "http://www.w3.org/Graphics/SVG/1.1/DTD/svg11.dtd">
<svg version="1.1" id="Layer_1" xmlns="http://www.w3.org/2000/svg" xmlns:xlink="http://www.w3.org/1999/xlink" x="0px" y="0px"
	 viewBox="0 0 231.1 160.4" enable-background="new 0 0 231.1 160.4" xml:space="preserve">
<g>
	<path fill="#959595" d="M228.6,0h-12.5c-1.8,0-3.1,1.2-3.7,3.5l-11.7,36.4h-60.3L128.7,3.5C128.2,1.2,127,0,125.2,0h-12.7
		c-2.2,0-2.9,1.2-2.2,3.5l46.6,153.4c0.7,2.3,2.2,3.5,4.7,3.5h17.9c2.5,0,4.1-1.2,4.7-3.5L230.8,3.5C231.5,1.2,230.8,0,228.6,0z
		 M171,141.7h-1l-25.7-86.3h52.3L171,141.7z"/>
	<path fill="#959595" d="M74.2,3.5C73.6,1.2,72,0,69.5,0H51.6c-2.5,0-4.1,1.2-4.7,3.5L0.2,156.9c-0.7,2.3,0.1,3.5,2.2,3.5h12.5
		c1.8,0,3.1-1.2,3.7-3.5l11.7-36.4h60.3l11.7,36.4c0.5,2.3,1.7,3.5,3.5,3.5h12.7c2.2,0,2.9-1.2,2.2-3.5L74.2,3.5z M34.4,105L60,18.7
		h1L86.7,105H34.4z"/>
</g>
</svg>
